<svg width="20" height="28" viewBox="0 0 20 28" fill="none" xmlns="http://www.w3.org/2000/svg">
<g clip-path="url(#clip0_4468_11112)">
<path d="M10.9723 0.00353468C11.3142 0.134258 11.6812 0.138568 12.0346 0.208958C15.9908 0.994736 19.1835 4.29156 19.8435 8.2851C19.9631 8.97266 20.0136 9.67045 19.9944 10.3681C19.9908 10.465 20.008 10.5663 19.9534 10.6554C19.9175 10.623 19.8988 10.5835 19.9074 10.567C19.8722 11.1366 19.6956 11.7055 19.5067 12.2715C19.3081 12.8565 19.0526 13.4206 18.7439 13.9558C18.4443 14.485 18.0943 14.9841 17.6988 15.4462C17.3063 15.9117 16.8737 16.342 16.4059 16.7319C15.9341 17.1169 15.431 17.4619 14.9019 17.7633C14.3619 18.0647 13.7952 18.3154 13.209 18.5124C12.6327 18.7102 12.0385 18.8514 11.4348 18.934C10.8336 19.025 10.2253 19.0597 9.61764 19.0375C4.47129 18.8055 0.635774 14.8414 0.100669 10.506C0.0891765 10.5598 0.112152 10.618 0.0561281 10.6496C-0.0279086 10.2962 0.00227666 9.93782 0.0209515 9.583C0.120072 7.66524 0.673122 5.89185 1.78715 4.31813C3.47434 1.9335 5.76201 0.511346 8.66307 0.0911627C8.78804 0.0732062 8.93243 0.101937 9.03802 -0.00292969H9.25349C9.26023 0.0047131 9.26851 0.0108342 9.2778 0.0150269C9.28709 0.0192196 9.29717 0.0213879 9.30736 0.0213879C9.31755 0.0213879 9.32761 0.0192196 9.33689 0.0150269C9.34618 0.0108342 9.35449 0.0047131 9.36123 -0.00292969H9.57671C9.62771 0.0187423 9.68252 0.0299119 9.73794 0.0299119C9.79335 0.0299119 9.8482 0.0187423 9.89919 -0.00292969H10.1147C10.1657 0.0187423 10.2205 0.0299119 10.2759 0.0299119C10.3313 0.0299119 10.3862 0.0187423 10.4372 -0.00292969H10.7058C10.7125 0.0047131 10.7209 0.0108342 10.7301 0.0150269C10.7394 0.0192196 10.7495 0.0213879 10.7597 0.0213879C10.7699 0.0213879 10.7799 0.0192196 10.7892 0.0150269C10.7985 0.0108342 10.8068 0.0047131 10.8135 -0.00292969L10.9723 0.00353468Z" fill="#F19B4E"/>
<path d="M9.89768 0.00390625C9.85317 0.043241 9.79582 0.0649518 9.73642 0.0649518C9.67702 0.0649518 9.6197 0.043241 9.5752 0.00390625H9.89768Z" fill="#F3A55F"/>
<path d="M10.4348 0.00390625C10.3903 0.043241 10.3329 0.0649518 10.2735 0.0649518C10.2141 0.0649518 10.1568 0.043241 10.1123 0.00390625H10.4348Z" fill="#F3A55F"/>
<path d="M9.36018 0.00390625C9.32427 0.0606489 9.28835 0.066395 9.25244 0.00390625H9.36018Z" fill="#F8CCA5"/>
<path d="M10.8113 0.00390625C10.7754 0.0685498 10.7395 0.0620854 10.7036 0.00390625H10.8113Z" fill="#F9D4B3"/>
<path d="M9.57163 21.1762C9.17946 22.3163 8.7873 23.4562 8.39513 24.5958C8.10064 25.4491 7.80447 26.3017 7.50663 27.1536C7.3522 27.5967 7.18703 27.6319 6.84585 27.2972C6.21881 26.6838 5.58816 26.0762 4.96543 25.4556C4.90247 25.3877 4.8233 25.337 4.73536 25.3081C4.64742 25.2792 4.55358 25.2731 4.46265 25.2904C3.56554 25.3989 2.66699 25.4872 1.76773 25.5777C1.43589 25.61 1.29582 25.4491 1.39709 25.1554C2.08806 23.1629 2.7812 21.1712 3.47647 19.1802C3.48413 19.1639 3.49377 19.1487 3.5052 19.1349C3.60791 19.1076 3.67328 19.1794 3.74438 19.2283C5.28075 20.2856 6.99093 20.8674 8.8304 21.0958C9.07748 21.1259 9.33389 21.0642 9.57163 21.1762Z" fill="#A6D785"/>
<path d="M16.5047 19.1328C16.8945 20.2341 17.2843 21.3374 17.6741 22.4425C17.982 23.3188 18.2875 24.1965 18.5906 25.0757C18.7227 25.4578 18.5949 25.6158 18.1876 25.5727C17.2804 25.4772 16.3733 25.3824 15.4676 25.2782C15.293 25.2581 15.1803 25.3271 15.0654 25.4391C14.4261 26.0664 13.7859 26.692 13.1447 27.316C12.8272 27.6255 12.6584 27.5882 12.5148 27.1773C11.8444 25.2538 11.174 23.3303 10.5037 21.4068C10.4778 21.3314 10.462 21.2524 10.4419 21.1755C10.7472 21.0426 11.0769 21.108 11.3943 21.0663C13.1236 20.8494 14.7777 20.2297 16.2239 19.257C16.3065 19.1996 16.3805 19.1091 16.5047 19.1328Z" fill="#A6D785"/>
<path d="M0.0556641 10.6522L0.0700433 10.3857C0.22447 11.0609 0.37962 11.7346 0.614491 12.3861C0.852111 13.0508 1.16286 13.687 1.54104 14.283C1.91757 14.879 2.35703 15.4329 2.85187 15.935C3.35032 16.4457 3.90059 16.903 4.49381 17.2997C5.07898 17.6941 5.70662 18.0215 6.3649 18.2758C7.02108 18.5321 7.70237 18.7187 8.39757 18.8325C9.09428 18.9388 9.79745 19.0135 10.5021 18.9632C12.8723 18.7937 14.974 17.967 16.7352 16.3466C18.4963 14.7262 19.5364 12.728 19.9329 10.3721C19.94 10.464 19.9465 10.5559 19.953 10.6472C19.8761 12.3107 19.3575 13.8355 18.4906 15.244C17.8801 16.2375 17.0963 17.1133 16.1763 17.8298C16.1431 17.8592 16.1115 17.8904 16.0815 17.9231C16.0636 18.0345 15.9702 18.079 15.8912 18.1386C14.4295 19.1851 12.807 19.8179 11.0171 19.991C10.6673 20.0248 10.311 20.1045 9.95477 20.0176C9.64305 20.1124 9.33059 20.0176 9.02605 19.9917C7.20453 19.8229 5.55684 19.1765 4.07004 18.1077C4.00468 18.0603 3.93572 18.0158 3.92639 17.9253C3.11978 17.2652 2.38428 16.5376 1.79531 15.6721C0.763168 14.1595 0.146883 12.4967 0.0556641 10.6522Z" fill="#EF8B36"/>
<path d="M9.95162 20.0002C10.8961 19.9471 11.8363 19.8645 12.7528 19.5958C13.8683 19.2726 14.9198 18.76 15.8615 18.0803C15.9333 18.0279 16.0095 17.9812 16.0834 17.9316C16.2512 18.3223 16.3925 18.7237 16.5065 19.1333C15.3436 19.9952 14.0457 20.5612 12.6451 20.9088C11.9533 21.0685 11.2494 21.1697 10.5406 21.2112C10.5083 21.2112 10.4738 21.1882 10.4408 21.176C10.328 20.8664 10.221 20.5547 10.0989 20.2487C10.0723 20.1805 10.0989 20.0505 9.95523 20.0605C9.9489 20.0565 9.94391 20.0506 9.94096 20.0437C9.93801 20.0368 9.93724 20.0291 9.93872 20.0218C9.94303 20.0074 9.94731 20.0002 9.95162 20.0002Z" fill="#94CE6F"/>
<path d="M9.95156 20.0002C9.95156 20.0203 9.95515 20.0404 9.95731 20.0605C9.85509 20.441 9.72619 20.8137 9.57159 21.176C9.18402 21.2033 8.79457 21.1819 8.41234 21.1121C7.10538 20.921 5.84158 20.5042 4.67738 19.8803C4.26574 19.6669 3.87414 19.4169 3.50732 19.1333C3.62029 18.7235 3.7614 18.322 3.92965 17.9316C4.69532 18.4754 5.49619 18.9544 6.37606 19.2963C7.4435 19.7066 8.57169 19.9367 9.71454 19.9772C9.79283 19.9787 9.87183 19.9916 9.95156 20.0002Z" fill="#94CE6F"/>
<path d="M2.15625 10.3221C2.0521 10.1282 2.09591 9.91631 2.11459 9.71879C2.21083 8.67731 2.40189 7.65953 2.8508 6.70209C3.1442 6.07867 3.51276 5.49348 3.94829 4.95959C4.63999 4.11424 5.50609 3.42823 6.48736 2.94845C7.48799 2.45045 8.58442 2.17457 9.70158 2.13969C11.0682 2.07419 12.4275 2.37393 13.6398 3.00807C15.0206 3.72276 16.1551 4.83548 16.8964 6.20218C17.454 7.21241 17.7819 8.33318 17.8567 9.48464C17.8768 9.76619 17.9602 10.0442 17.8567 10.3236C17.7741 10.2273 17.8567 10.1181 17.8244 10.0104C17.8244 10.5319 17.6851 11.016 17.5306 11.503C17.3626 11.9945 17.1498 12.4696 16.895 12.9222C16.6398 13.3746 16.3389 13.7996 15.9971 14.1907C15.655 14.5922 15.2696 14.9548 14.8479 15.2717C14.4385 15.5918 13.9971 15.8686 13.5306 16.0977C13.0658 16.3299 12.5788 16.5147 12.0769 16.6493C11.574 16.7776 11.0604 16.8603 10.5427 16.8964C5.83589 17.2225 2.42631 13.4624 2.18354 10.0499C2.17132 10.1153 2.21946 10.2223 2.15625 10.3221Z" fill="#C2773F"/>
<path d="M2.15625 10.322V9.89746C2.44355 11.8648 3.29182 13.5218 4.77934 14.8535C6.26686 16.1851 8.04096 16.8646 10.0291 16.8481C14.343 16.8057 17.3855 13.5843 17.8538 9.90105V10.3241C17.8066 11.9896 17.2087 13.5926 16.1537 14.8822C14.914 16.4236 13.3195 17.4033 11.3586 17.733C8.95604 18.1366 6.78832 17.557 4.92875 15.9984C3.37156 14.6919 2.45146 12.9989 2.19935 10.9612C2.17428 10.749 2.15989 10.5356 2.15625 10.322Z" fill="#B06A3B"/>
</g>
<defs>
<clipPath id="clip0_4468_11112">
<rect width="20" height="27.5209" fill="white"/>
</clipPath>
</defs>
</svg>
