<svg width="20" height="28" viewBox="0 0 20 28" fill="none" xmlns="http://www.w3.org/2000/svg">
<g clip-path="url(#clip0_4468_11140)">
<path d="M7.04447 27.5251L4.87142 25.3822C4.77372 25.2867 4.6559 25.2745 4.52444 25.2896C3.61068 25.3916 2.69599 25.4893 1.78031 25.5826C1.42903 25.6186 1.28822 25.4605 1.39454 25.1516C2.08417 23.1618 2.77619 21.1721 3.47061 19.1827C3.47827 19.1665 3.48791 19.1513 3.49934 19.1375C3.61284 19.1095 3.68251 19.1921 3.76009 19.2452C5.29596 20.2976 7.00424 20.8759 8.84182 21.1008C9.08822 21.1309 9.34466 21.0749 9.58172 21.1769C9.63919 21.2868 9.58604 21.3881 9.55156 21.4872C8.87917 23.3952 8.23335 25.3118 7.55234 27.2169C7.50565 27.3477 7.44534 27.4626 7.31316 27.5244L7.04447 27.5251Z" fill="#EB565B"/>
<path d="M16.501 19.1384C16.9464 20.4013 17.3911 21.6637 17.835 22.9256C18.0893 23.6497 18.3417 24.3748 18.5922 25.1008C18.7143 25.455 18.5922 25.6202 18.2194 25.5828C17.3042 25.4894 16.3894 25.3917 15.4752 25.2897C15.3416 25.2746 15.2266 25.2897 15.1297 25.3824L12.9559 27.5253H12.6872C12.5436 27.4599 12.4897 27.3299 12.4394 27.1927C12.0716 26.1941 11.7361 25.1813 11.3841 24.1755C11.0762 23.2982 10.7709 22.4196 10.4682 21.5399C10.428 21.4249 10.359 21.31 10.4165 21.1807C10.7218 21.0499 11.0508 21.1153 11.3676 21.0729C13.1434 20.8359 14.7813 20.2461 16.2618 19.2296C16.3329 19.1822 16.399 19.1096 16.501 19.1384Z" fill="#EB565B"/>
<path d="M0.00927734 9.89741C0.0249916 8.57261 0.301056 7.26382 0.821752 6.04554C1.40517 4.67265 2.29524 3.45159 3.42369 2.47598C4.79786 1.26084 6.48614 0.45678 8.29563 0.155662C10.4637 -0.215494 12.5287 0.0898116 14.4908 1.07158C16.332 1.99755 17.7486 3.37753 18.7478 5.18134C19.4497 6.43256 19.8612 7.8256 19.9518 9.25735C19.9648 9.47286 20.0107 9.6819 19.9899 9.89741C19.9507 10.0395 19.935 10.187 19.9432 10.3342C19.8562 11.2171 19.628 12.0803 19.2672 12.8908C18.2725 15.204 16.6442 16.9206 14.3823 18.0408C13.2698 18.5855 12.0638 18.9134 10.8286 19.007C9.28911 19.1394 7.7399 18.9126 6.3029 18.3447C5.07399 17.8617 3.95482 17.1363 3.01206 16.2118C1.60465 14.8654 0.624565 13.1346 0.19392 11.235C0.126992 10.939 0.0790041 10.6391 0.0502466 10.337C0.0603205 10.1893 0.0464716 10.0408 0.00927734 9.89741Z" fill="#FAE088"/>
<path d="M0.109263 10.3227C0.225782 11.2252 0.467565 12.1069 0.827628 12.9426C1.40878 14.3269 2.29382 15.4964 3.40729 16.4863C4.28204 17.2661 5.29056 17.8813 6.38419 18.3023C7.17399 18.6073 7.99887 18.8122 8.83957 18.9122C10.1256 19.0631 11.4287 18.9614 12.6756 18.6127C13.9375 18.27 15.1168 17.6752 16.1424 16.8642C17.1778 16.0516 18.0452 15.0454 18.6963 13.9016C19.2975 12.8499 19.6509 11.7164 19.8794 10.5368C19.8881 10.4653 19.8917 10.3933 19.8902 10.3213C20.0511 10.4061 19.9462 10.5368 19.9476 10.6503C19.8851 12.1926 19.4225 13.6179 18.6661 14.9526C18.0425 16.0543 17.2096 17.0236 16.2143 17.8059C16.1621 17.8414 16.1236 17.8936 16.1051 17.9539C15.7459 18.2865 15.3292 18.5286 14.9112 18.77C13.7149 19.4495 12.3886 19.8686 11.0191 19.9998C10.6645 20.0455 10.3068 20.0635 9.94942 20.0537C8.66212 20.0257 7.41216 19.8123 6.21824 19.3138C5.51508 19.0256 4.84642 18.6596 4.22478 18.2226C4.10912 18.14 3.98053 18.0724 3.89432 17.9539C3.80668 17.765 3.61848 17.6781 3.47337 17.5509C1.6868 15.9813 0.57476 14.0309 0.160264 11.6883C0.087205 11.3472 0.0508573 10.9992 0.0518074 10.6503C0.0532442 10.539 -0.0516512 10.4082 0.109263 10.3227Z" fill="#F2CE6C"/>
<path d="M9.9458 20.0137C10.8308 19.9289 11.7173 19.8779 12.5851 19.6416C13.7657 19.318 14.879 18.786 15.8723 18.0705C15.9442 18.0188 16.0052 17.9484 16.1051 17.9556C16.2372 18.3502 16.3692 18.7446 16.5009 19.1387C15.2797 20.0518 13.9069 20.625 12.4299 20.9641C11.7971 21.1028 11.1534 21.1862 10.5061 21.2134C10.4817 21.2134 10.4573 21.1925 10.4343 21.1818C10.3251 20.8808 10.2188 20.5783 10.1031 20.2788C10.0758 20.2069 10.0909 20.082 9.94868 20.1085C9.94177 20.1028 9.93613 20.0957 9.93219 20.0876C9.92825 20.0795 9.92608 20.0707 9.92581 20.0618C9.92554 20.0528 9.92717 20.0439 9.93062 20.0356C9.93406 20.0273 9.93925 20.0198 9.9458 20.0137Z" fill="#E84343"/>
<path d="M9.94589 20.0137C9.94589 20.0453 9.94589 20.0769 9.94589 20.1085L9.56657 21.1818C9.17871 21.2102 8.78881 21.1887 8.40642 21.1178C7.09908 20.9275 5.83497 20.5106 4.67092 19.8858C4.25925 19.672 3.86741 19.422 3.5 19.1387C3.63122 18.7446 3.76314 18.3502 3.8958 17.9556C3.99566 17.9484 4.05673 18.0188 4.12857 18.0705C5.5566 19.1096 7.23333 19.7539 8.98974 19.9383C9.30582 19.9706 9.63053 19.9419 9.94589 20.0137Z" fill="#E84343"/>
<path d="M0.109226 10.3229C0.01081 10.4192 0.0790687 10.5435 0.0517708 10.6519C-0.0365881 10.4041 0.0165471 10.1491 0.00936344 9.89551C0.0918146 10.0218 0.127175 10.1732 0.109226 10.3229Z" fill="#F5D77E"/>
<path d="M19.9478 10.6519C19.9205 10.5435 19.9887 10.4192 19.8903 10.3229C19.8724 10.1732 19.9077 10.0218 19.9902 9.89551C19.983 10.1484 20.0369 10.4041 19.9478 10.6519Z" fill="#F5D87F"/>
<path d="M2.15023 10.1632C2.12821 10.1408 2.11213 10.1132 2.10348 10.083C2.09482 10.0527 2.09387 10.0208 2.10067 9.99011C2.1567 8.89963 2.29462 7.82711 2.72492 6.80847C3.12628 5.84029 3.71765 4.9624 4.46408 4.22667C5.65814 3.04055 7.20395 2.27269 8.87052 2.03781C10.5608 1.78495 12.157 2.07804 13.662 2.85746C15.0133 3.55345 16.1257 4.63738 16.8566 5.97014C17.4823 7.08864 17.835 8.27968 17.8494 9.56628C17.8494 9.76526 17.9758 9.96425 17.8494 10.1632C17.8456 10.1552 17.8408 10.1477 17.835 10.141C17.8276 10.1358 17.8196 10.1315 17.8113 10.128C17.8041 10.7925 17.5871 11.4074 17.34 12.008C16.9528 12.976 16.3714 13.8544 15.6318 14.5891C14.3825 15.8103 12.8984 16.6005 11.1506 16.8361C9.53358 17.0516 7.97113 16.8519 6.50279 16.1127C4.99423 15.3513 3.80463 14.245 3.01227 12.7364C2.58915 11.9304 2.25509 11.0964 2.17966 10.1776C2.17966 10.169 2.18469 10.1568 2.17966 10.1517C2.15524 10.1165 2.15957 10.1625 2.15023 10.1632Z" fill="#F4BA68"/>
<path d="M2.15039 10.1638L2.15902 10.0086C2.49521 11.9403 3.32493 13.594 4.81697 14.8935C6.30901 16.193 8.05677 16.8762 10.0294 16.851C14.4833 16.7943 17.3653 13.4489 17.81 10C17.8818 10.0409 17.8345 10.1106 17.8524 10.1624C17.8352 11.9338 17.2562 13.5107 16.1556 14.8856C14.9179 16.4308 13.3202 17.4078 11.3598 17.7375C8.95688 18.1412 6.78813 17.5622 4.929 16.0027C3.37159 14.696 2.45208 13.002 2.19922 10.9633C2.15971 10.6968 2.15973 10.431 2.15039 10.1638Z" fill="#F3AD55"/>
</g>
<defs>
<clipPath id="clip0_4468_11140">
<rect width="20" height="27.5249" fill="white"/>
</clipPath>
</defs>
</svg>
