<svg width="20" height="28" viewBox="0 0 20 28" fill="none" xmlns="http://www.w3.org/2000/svg">
<g clip-path="url(#clip0_4468_11126)">
<path d="M0 9.84333C0.0329644 8.53086 0.313103 7.23639 0.825769 6.02774C1.41295 4.64496 2.29695 3.47851 3.40878 2.48455C4.29003 1.69823 5.30868 1.08109 6.41367 0.664079C7.26981 0.331183 8.17007 0.12537 9.08581 0.0531832C9.16918 0.0028741 9.26115 0.0380915 9.34883 0.027311C9.49257 0.0136557 9.6428 0.0582148 9.78511 0H10.2163C10.3601 0.0582148 10.5038 0.0136557 10.6519 0.027311C10.7395 0.0380915 10.8315 0.0028741 10.9156 0.0531832C11.9398 0.119304 12.915 0.383786 13.8623 0.771884C15.286 1.35691 16.4884 2.25313 17.5054 3.39514C18.507 4.52009 19.2344 5.86175 19.6306 7.31494C19.8467 8.12326 19.9713 8.95329 20.0021 9.78942C19.9657 9.96382 19.9486 10.1417 19.9511 10.3198C19.8836 11.2225 19.6248 12.0785 19.2698 12.9028C18.2701 15.2257 16.6228 16.9441 14.3568 18.0617C13.2668 18.5944 12.0852 18.9145 10.8754 19.0046C8.32973 19.2123 6.01768 18.5734 3.9816 17.0447C1.99079 15.5484 0.701439 13.5698 0.166726 11.1212C0.109519 10.8607 0.0710828 10.5965 0.0517268 10.3306C0.0583918 10.1665 0.0409772 10.0023 0 9.84333Z" fill="#9D9D9D"/>
<path d="M9.78511 0C9.65287 0.107086 9.49763 0.0301847 9.35389 0.0531831C9.33664 0.0416839 9.33088 0.0294667 9.33663 0.0179675C9.34238 0.0064683 9.34814 0 9.35389 0H9.78511Z" fill="#E6E6E6"/>
<path d="M10.6456 0.0531831C10.5018 0.0301847 10.348 0.107086 10.2144 0H10.6456C10.6635 0.0114992 10.6693 0.0237171 10.6635 0.035935C10.6578 0.0481529 10.652 0.0531831 10.6456 0.0531831Z" fill="#E6E6E6"/>
<path d="M9.35471 0V0.0531831H9.08594V0H9.35471Z" fill="#F3F3F3"/>
<path d="M10.6455 0.0531831V0H10.9143C10.9143 0.0179675 10.9143 0.0352156 10.9143 0.0531831H10.6455Z" fill="#F3F3F3"/>
<path d="M9.56867 21.1875C9.11445 22.5071 8.66049 23.8261 8.20675 25.1447C7.96671 25.8383 7.72232 26.5296 7.47868 27.2218C7.35076 27.5861 7.16823 27.6314 6.89656 27.3655C6.24973 26.7338 5.59859 26.1042 4.95607 25.4681C4.89303 25.4004 4.81366 25.35 4.72558 25.3217C4.63751 25.2934 4.54367 25.2881 4.45298 25.3064C3.55748 25.4178 2.65621 25.5041 1.75999 25.5939C1.42436 25.6262 1.28637 25.4652 1.38843 25.1691C2.07359 23.1913 2.76139 21.2144 3.45182 19.2384C3.45685 19.2226 3.47338 19.2111 3.48488 19.1975C3.6049 19.1256 3.69042 19.2104 3.77236 19.2693C5.28594 20.2949 6.96413 20.872 8.7695 21.1027C9.03686 21.1336 9.31066 21.0884 9.56867 21.1875Z" fill="#0283FD"/>
<path d="M16.516 19.1967C16.825 19.9492 17.0651 20.7261 17.3346 21.4966C17.7557 22.6944 18.1742 23.8937 18.5901 25.0944C18.7231 25.4775 18.5901 25.6384 18.1862 25.5975C17.2713 25.499 16.3564 25.4006 15.4422 25.2956C15.2654 25.2755 15.1548 25.3675 15.0469 25.4782C14.4001 26.1106 13.7533 26.7426 13.1065 27.3741C12.842 27.6314 12.6508 27.5897 12.5315 27.2541C11.8353 25.2619 11.1406 23.2684 10.4473 21.2738C10.4409 21.2478 10.4369 21.2214 10.4351 21.1947C10.8792 21.0812 11.3392 21.1013 11.7898 21.0258C13.35 20.7693 14.8382 20.1853 16.1566 19.3124C16.263 19.2434 16.3593 19.1162 16.516 19.1967Z" fill="#0283FD"/>
<path d="M0.104917 10.3262C0.219746 11.2289 0.46171 12.1109 0.823617 12.9458C1.39858 14.3042 2.26099 15.4527 3.34623 16.4366C4.24805 17.2557 5.2966 17.897 6.43664 18.3267C7.70605 18.8139 9.06196 19.0353 10.4204 18.9772C11.6163 18.9303 12.7937 18.6666 13.8953 18.1988C15.2573 17.62 16.4739 16.7461 17.4572 15.6402C18.4807 14.511 19.2244 13.1569 19.6284 11.6874C19.7601 11.2436 19.851 10.7887 19.9 10.3283C20.061 10.4124 19.9568 10.5439 19.9554 10.6539C19.9274 11.8124 19.6334 12.9128 19.1763 13.9678C18.6263 15.2453 17.813 16.3924 16.7895 17.3342C16.619 17.4914 16.4431 17.6428 16.262 17.7884C16.1966 17.8409 16.1334 17.8847 16.1183 17.9724C15.1588 18.7436 14.075 19.2725 12.9057 19.6391C12.0483 19.9079 11.1628 20.0099 10.2716 20.0775C10.1638 20.0854 10.056 20.0617 9.95181 20.0646C9.26443 20.0562 8.57945 19.9816 7.90639 19.8418C6.48049 19.5543 5.2012 18.9376 4.02109 18.0996C3.96974 18.064 3.92377 18.0211 3.88455 17.9724C3.82849 17.7712 3.63445 17.6993 3.4979 17.5807C1.68462 15.9996 0.563443 14.0347 0.154503 11.663C0.0970072 11.328 0.0373411 10.9953 0.0502777 10.6568C0.0481216 10.5396 -0.0560717 10.4103 0.104917 10.3262Z" fill="#888888"/>
<path d="M9.94699 20.0167C11.0444 19.9549 12.1318 19.8363 13.1811 19.4727C14.1469 19.1435 15.0578 18.6713 15.8835 18.0719C15.9553 18.0195 16.0143 17.9447 16.1178 17.9699L16.5166 19.1967C16.1652 19.3325 15.882 19.5841 15.5564 19.7673C14.3908 20.4251 13.1185 20.8725 11.7976 21.089C11.3937 21.1559 10.9848 21.1609 10.583 21.2328C10.5371 21.2407 10.4824 21.2054 10.4321 21.1896C10.3236 20.8899 10.2165 20.5888 10.1036 20.2913C10.0756 20.2194 10.0814 20.1001 9.94699 20.1159C9.93974 20.1098 9.9339 20.1022 9.9299 20.0937C9.9259 20.0851 9.92383 20.0758 9.92383 20.0663C9.92383 20.0569 9.9259 20.0475 9.9299 20.0389C9.9339 20.0304 9.93974 20.0228 9.94699 20.0167Z" fill="#0073FC"/>
<path d="M9.94671 20.0171V20.1148L9.56865 21.1885C9.31423 21.2539 9.05478 21.2072 8.80826 21.177C7.34715 20.9988 5.95216 20.592 4.65419 19.8834C4.35737 19.7217 4.07922 19.5319 3.78599 19.358C3.68825 19.2998 3.6092 19.2042 3.48486 19.1956C3.5747 18.773 3.77235 18.3842 3.88303 17.9688C4.17985 18.0406 4.38611 18.2699 4.62903 18.4237C5.89682 19.2143 7.26165 19.7289 8.75008 19.8992C9.14824 19.9459 9.54783 19.9782 9.94671 20.0171Z" fill="#0073FC"/>
<path d="M2.1415 10.0643C2.11852 9.52333 2.1644 8.98165 2.27804 8.45225C2.56051 6.96533 3.27905 5.59608 4.34216 4.51881C5.51437 3.31642 6.92947 2.54094 8.60261 2.25346C10.2757 1.96598 11.8605 2.16003 13.3798 2.88304C14.8345 3.56351 16.0405 4.68107 16.8296 6.07982C17.4744 7.18002 17.8281 8.42644 17.8573 9.70135C17.8573 9.82209 17.9515 9.94356 17.8573 10.0643C17.7711 10.6155 17.6676 11.161 17.4663 11.6871C17.1195 12.6296 16.6023 13.5003 15.9405 14.2558C14.8143 15.5192 13.4337 16.3572 11.7857 16.7231C10.1169 17.0932 8.47971 16.9688 6.89281 16.2969C5.97297 15.9118 5.13617 15.3527 4.42839 14.6503C3.33389 13.5765 2.57573 12.2072 2.24642 10.7097C2.1954 10.4962 2.22558 10.2713 2.1415 10.0643Z" fill="#DFDFDF"/>
<path d="M2.14174 10.0636C2.14337 10.0547 2.14579 10.0461 2.14894 10.0377C2.15828 10.014 2.19205 9.99097 2.19421 10.019C2.21531 10.2129 2.25015 10.405 2.29843 10.594C2.57873 11.9839 3.21044 13.1899 4.15625 14.2457C5.31048 15.535 6.73496 16.3637 8.4196 16.695C10.0453 17.0148 11.643 16.8682 13.1788 16.1869C14.0492 15.809 14.842 15.2729 15.5168 14.6057C16.7781 13.3451 17.5572 11.8251 17.7972 10.0442C17.8019 10.0299 17.8084 10.0164 17.8166 10.0039L17.8561 10.0621C17.8806 14.278 14.341 17.8758 9.98491 17.8643C5.62887 17.8528 2.11587 14.2608 2.14174 10.0636Z" fill="#CDCDCD"/>
</g>
<defs>
<clipPath id="clip0_4468_11126">
<rect width="20" height="27.5363" fill="white"/>
</clipPath>
</defs>
</svg>
