<svg width="20" height="28" viewBox="0 0 20 28" fill="none" xmlns="http://www.w3.org/2000/svg">
<g clip-path="url(#clip0_4354_16137)">
<path d="M7.04423 27.5256L4.87118 25.3827C4.77348 25.2872 4.65566 25.275 4.5242 25.29C3.61044 25.3921 2.69574 25.4897 1.78007 25.5831C1.42879 25.6191 1.28798 25.461 1.3943 25.1521C2.08393 23.1622 2.77595 21.1726 3.47036 19.1832C3.47802 19.167 3.48767 19.1518 3.49909 19.138C3.61259 19.11 3.68227 19.1926 3.75985 19.2457C5.29571 20.2981 7.004 20.8764 8.84158 21.1013C9.08798 21.1314 9.34442 21.0754 9.58148 21.1774C9.63895 21.2873 9.58579 21.3886 9.55131 21.4877C8.87892 23.3957 8.23311 25.3123 7.5521 27.2174C7.5054 27.3482 7.44509 27.4631 7.31291 27.5249L7.04423 27.5256Z" fill="#EB565B"/>
<path d="M16.5008 19.1386C16.9462 20.4015 17.3908 21.6639 17.8348 22.9258C18.0891 23.6499 18.3415 24.375 18.5919 25.101C18.7141 25.4552 18.592 25.6204 18.2191 25.5831C17.3039 25.4897 16.3892 25.392 15.475 25.29C15.3413 25.2749 15.2264 25.29 15.1294 25.3826L12.9557 27.5255H12.687C12.5433 27.4602 12.4895 27.3301 12.4392 27.1929C12.0714 26.1944 11.7359 25.1815 11.3839 24.1758C11.076 23.2984 10.7706 22.4199 10.468 21.5401C10.4277 21.4252 10.3588 21.3102 10.4162 21.1809C10.7215 21.0502 11.0506 21.1155 11.3674 21.0732C13.1432 20.8361 14.781 20.2463 16.2616 19.2298C16.3327 19.1824 16.3988 19.1099 16.5008 19.1386Z" fill="#EB565B"/>
<path d="M0.00927734 9.89765C0.0249916 8.57285 0.301056 7.26407 0.821752 6.04578C1.40517 4.67289 2.29524 3.45183 3.42369 2.47622C4.79786 1.26109 6.48614 0.457024 8.29563 0.155906C10.4637 -0.215249 12.5287 0.0900557 14.4908 1.07182C16.332 1.99779 17.7486 3.37777 18.7478 5.18158C19.4497 6.43281 19.8612 7.82584 19.9518 9.25759C19.9648 9.4731 20.0107 9.68214 19.9899 9.89765C19.9507 10.0397 19.935 10.1873 19.9432 10.3344C19.8562 11.2173 19.628 12.0805 19.2672 12.8911C18.2725 15.2042 16.6442 16.9209 14.3823 18.041C13.2698 18.5857 12.0638 18.9136 10.8286 19.0072C9.28911 19.1396 7.7399 18.9129 6.3029 18.3449C5.07399 17.8619 3.95482 17.1366 3.01206 16.2121C1.60465 14.8656 0.624565 13.1348 0.19392 11.2352C0.126992 10.9393 0.0790041 10.6394 0.0502466 10.3373C0.0603205 10.1895 0.0464716 10.041 0.00927734 9.89765Z" fill="#FAE088"/>
<path d="M0.109263 10.323C0.225782 11.2254 0.467565 12.1072 0.827628 12.9428C1.40878 14.3271 2.29382 15.4966 3.40729 16.4865C4.28204 17.2663 5.29056 17.8816 6.38419 18.3026C7.17399 18.6075 7.99887 18.8124 8.83957 18.9125C10.1256 19.0634 11.4287 18.9616 12.6756 18.6129C13.9375 18.2703 15.1168 17.6755 16.1424 16.8644C17.1778 16.0518 18.0452 15.0456 18.6963 13.9019C19.2975 12.8502 19.6509 11.7166 19.8794 10.537C19.8881 10.4656 19.8917 10.3935 19.8902 10.3215C20.0511 10.4063 19.9462 10.537 19.9476 10.6505C19.8851 12.1929 19.4225 13.6181 18.6661 14.9528C18.0425 16.0546 17.2096 17.0239 16.2143 17.8062C16.1621 17.8416 16.1236 17.8938 16.1051 17.9542C15.7459 18.2868 15.3292 18.5289 14.9112 18.7702C13.7149 19.4498 12.3886 19.8689 11.0191 20.0001C10.6645 20.0457 10.3068 20.0637 9.94942 20.0539C8.66212 20.0259 7.41216 19.8126 6.21824 19.314C5.51508 19.0259 4.84642 18.6599 4.22478 18.2228C4.10912 18.1402 3.98053 18.0727 3.89432 17.9542C3.80668 17.7652 3.61848 17.6783 3.47337 17.5512C1.6868 15.9815 0.57476 14.0312 0.160264 11.6886C0.087205 11.3474 0.0508573 10.9994 0.0518074 10.6505C0.0532442 10.5392 -0.0516512 10.4085 0.109263 10.323Z" fill="#F2CE6C"/>
<path d="M9.9458 20.0137C10.8308 19.9289 11.7173 19.8779 12.5851 19.6416C13.7657 19.318 14.879 18.786 15.8723 18.0705C15.9442 18.0188 16.0052 17.9484 16.1051 17.9556C16.2372 18.3502 16.3692 18.7446 16.5009 19.1387C15.2797 20.0518 13.9069 20.625 12.4299 20.9641C11.7971 21.1028 11.1534 21.1862 10.5061 21.2134C10.4817 21.2134 10.4573 21.1925 10.4343 21.1818C10.3251 20.8808 10.2188 20.5783 10.1031 20.2788C10.0758 20.2069 10.0909 20.082 9.94868 20.1085C9.94177 20.1028 9.93613 20.0957 9.93219 20.0876C9.92825 20.0795 9.92608 20.0707 9.92581 20.0618C9.92554 20.0528 9.92717 20.0439 9.93062 20.0356C9.93406 20.0273 9.93925 20.0198 9.9458 20.0137Z" fill="#E84343"/>
<path d="M9.94589 20.0137C9.94589 20.0453 9.94589 20.0769 9.94589 20.1085L9.56657 21.1818C9.17871 21.2102 8.78881 21.1887 8.40642 21.1178C7.09908 20.9275 5.83497 20.5106 4.67092 19.8858C4.25925 19.672 3.86741 19.422 3.5 19.1387C3.63122 18.7446 3.76314 18.3502 3.8958 17.9556C3.99566 17.9484 4.05673 18.0188 4.12857 18.0705C5.5566 19.1096 7.23333 19.7539 8.98974 19.9383C9.30582 19.9706 9.63053 19.9419 9.94589 20.0137Z" fill="#E84343"/>
<path d="M0.109226 10.3229C0.01081 10.4192 0.0790687 10.5435 0.0517708 10.6519C-0.0365881 10.4041 0.0165471 10.1491 0.00936344 9.89551C0.0918146 10.0218 0.127175 10.1732 0.109226 10.3229Z" fill="#F5D77E"/>
<path d="M19.9476 10.6519C19.9203 10.5435 19.9885 10.4192 19.8901 10.3229C19.8721 10.1732 19.9075 10.0218 19.9899 9.89551C19.9827 10.1484 20.0366 10.4041 19.9476 10.6519Z" fill="#F5D87F"/>
<path d="M2.14999 10.1635C2.12797 10.141 2.11189 10.1134 2.10323 10.0832C2.09458 10.053 2.09363 10.0211 2.10043 9.99035C2.15646 8.89987 2.29438 7.82736 2.72468 6.80872C3.12604 5.84054 3.71741 4.96264 4.46384 4.22691C5.65789 3.0408 7.2037 2.27293 8.87027 2.03806C10.5606 1.78519 12.1568 2.07828 13.6618 2.85771C15.0131 3.55369 16.1255 4.63763 16.8563 5.97039C17.482 7.08888 17.8348 8.27993 17.8491 9.56652C17.8491 9.76551 17.9756 9.96449 17.8491 10.1635C17.8454 10.1554 17.8405 10.148 17.8347 10.1412C17.8273 10.1361 17.8194 10.1317 17.811 10.1283C17.8039 10.7928 17.5869 11.4077 17.3398 12.0082C16.9525 12.9762 16.3712 13.8546 15.6315 14.5893C14.3823 15.8105 12.8982 16.6008 11.1504 16.8364C9.53334 17.0519 7.97088 16.8522 6.50255 16.113C4.99398 15.3515 3.80438 14.2452 3.01203 12.7367C2.58891 11.9307 2.25485 11.0966 2.17942 10.1778C2.17942 10.1692 2.18445 10.157 2.17942 10.152C2.15499 10.1168 2.15933 10.1628 2.14999 10.1635Z" fill="#F4BA68"/>
<path d="M2.15015 10.1635L2.15878 10.0084C2.49497 11.9401 3.32468 13.5937 4.81673 14.8933C6.30877 16.1928 8.05652 16.8759 10.0292 16.8508C14.483 16.7941 17.3651 13.4486 17.8098 9.99976C17.8816 10.0407 17.8342 10.1104 17.8522 10.1621C17.8349 11.9336 17.2559 13.5104 16.1554 14.8854C14.9176 16.4306 13.32 17.4075 11.3596 17.7373C8.95663 18.141 6.78789 17.562 4.92876 16.0024C3.37134 14.6957 2.45184 13.0018 2.19897 10.9631C2.15946 10.6966 2.15949 10.4308 2.15015 10.1635Z" fill="#F3AD55"/>
</g>
<defs>
<clipPath id="clip0_4354_16137">
<rect width="20" height="27.5249" fill="white"/>
</clipPath>
</defs>
</svg>
