<svg width="27" height="25" viewBox="0 0 27 25" fill="none" xmlns="http://www.w3.org/2000/svg">
<g clip-path="url(#clip0_4468_11152)">
<path d="M0 7.94877C0.102142 7.81499 0.0802978 7.65147 0.0986129 7.49928C0.154263 7.04696 0.459991 6.7532 0.915755 6.77869C1.68499 6.82186 2.35136 7.15173 2.97266 7.58422C3.07973 7.65926 3.184 7.74207 3.31573 7.844C3.3594 7.59696 3.39673 7.37612 3.43759 7.15526C3.46647 6.99741 3.32275 6.99599 3.24456 6.94857C2.04703 6.21877 1.47363 5.14779 1.53774 3.74553C1.56637 3.1522 1.73933 2.57497 2.04143 2.06437C2.39975 1.45691 2.8121 0.883329 3.27345 0.350658C3.65032 -0.0889199 4.11877 -0.107327 4.53227 0.290488C5.4114 1.13213 5.80024 2.19603 5.89885 3.3831C5.9693 4.19855 5.79953 4.97366 5.49099 5.72964C3.91448 9.59382 5.15006 13.8077 8.58414 16.3128C8.86591 16.5202 9.14769 16.7297 9.33084 17.0461C9.24913 17.1565 9.12586 17.136 9.01949 17.1282C8.54329 17.0914 8.18049 17.2323 8.02129 17.7257C8.00717 17.7571 7.98212 17.7823 7.95084 17.7964C7.8487 17.7434 7.77334 17.6549 7.63034 17.7688C5.96085 19.1003 3.73274 18.5475 2.58241 16.9569C2.19313 16.4132 1.84667 15.8397 1.5462 15.2418C1.28838 14.7371 1.44055 14.3088 1.95055 14.0625C2.64371 13.7284 3.37913 13.6675 4.13428 13.7171C4.18641 13.7171 4.23851 13.7171 4.32445 13.7171C4.23147 13.4991 4.14977 13.2994 4.06102 13.1034C3.99973 12.9689 3.87575 13.0326 3.77924 13.0326C2.61764 13.1076 1.67229 12.673 0.917853 11.8016C0.514933 11.3324 0.23459 10.7697 0.102121 10.1644C0.0774663 10.0575 0.0908711 9.93501 0 9.84865V9.53082C0.0429749 9.41096 0.0429749 9.27978 0 9.15991V8.7352C0.0429749 8.61533 0.0429749 8.48415 0 8.36428V7.94877Z" fill="#ABABAB"/>
<path d="M0 8.37207C0.0401149 8.4255 0.0618094 8.4906 0.0618094 8.55753C0.0618094 8.62446 0.0401149 8.68957 0 8.743V8.37207Z" fill="#F4CC73"/>
<path d="M0 9.16699C0.0404466 9.22028 0.0623254 9.28543 0.0623254 9.35245C0.0623254 9.41946 0.0404466 9.48462 0 9.53791V9.16699Z" fill="#F3C661"/>
<path d="M17.6558 17.0405C17.8171 16.7333 18.0819 16.5337 18.3602 16.3391C20.1663 15.0649 21.4075 13.3838 21.9528 11.2206C22.4248 9.40308 22.2759 7.47899 21.5301 5.75663C20.8017 4.03513 20.975 2.40423 21.9823 0.849072C22.1389 0.613228 22.3287 0.401492 22.5459 0.220497C22.8748 -0.062645 23.3208 -0.086712 23.5969 0.220497C24.3197 1.02887 25.0142 1.86696 25.3228 2.93936C25.7968 4.58583 25.1818 6.10843 23.7138 6.96777C23.5835 7.04422 23.5434 7.12137 23.5779 7.26294C23.623 7.44203 23.6539 7.62465 23.6934 7.81861C23.8646 7.76198 23.9752 7.62041 24.1196 7.52344C24.6112 7.1807 25.165 6.9385 25.7496 6.81062C26.4393 6.66339 26.8168 6.92034 26.9014 7.61899C27.007 8.48824 27.0803 9.36314 26.8767 10.2253C26.5027 11.8045 25.1072 13.1863 23.2081 13.0334C23.0453 13.0199 22.9714 13.0744 22.9207 13.221C22.8629 13.3852 22.7833 13.5416 22.7142 13.698C22.7847 13.783 22.8551 13.7334 22.9164 13.7292C23.6342 13.686 24.3365 13.7433 25.005 14.0392C25.5622 14.2863 25.7278 14.7152 25.4671 15.2645C25.029 16.1847 24.5021 17.0476 23.7019 17.7059C22.4001 18.7783 20.7538 18.8102 19.4049 17.7923C19.1935 17.6309 19.1393 17.6507 19.0386 17.9494C18.9681 17.8963 18.9681 17.8121 18.954 17.7371C18.8709 17.3555 18.6215 17.1559 18.2327 17.1319C18.0376 17.117 17.8262 17.2033 17.6558 17.0405Z" fill="#888888"/>
<path d="M13.4917 1.21827C13.8763 1.18641 14.1144 1.37895 14.2666 1.71376C14.802 2.91075 15.3444 4.10419 15.872 5.304C15.9741 5.53688 16.096 5.64873 16.3651 5.68412C17.5358 5.83843 18.7016 6.02601 19.8689 6.2051C20.2211 6.25889 20.5029 6.41109 20.6198 6.77775C20.7353 7.13168 20.6085 7.40987 20.3585 7.65762C19.4822 8.52404 18.6115 9.39611 17.7345 10.2625C17.6225 10.3729 17.564 10.4678 17.5936 10.6462C17.8049 11.875 17.9965 13.1081 18.2079 14.3376C18.2699 14.7001 18.1734 14.986 17.8881 15.1991C17.6028 15.4122 17.3055 15.3938 16.9977 15.2324C16.096 14.7602 15.1915 14.2945 14.2877 13.8266C13.9728 13.7593 13.6827 13.6051 13.4502 13.3813C13.437 13.352 13.4275 13.321 13.422 13.2893C13.4083 13.1752 13.4033 13.0602 13.4072 12.9453C13.4072 9.188 13.4072 5.43047 13.4072 1.67271C13.4086 1.51981 13.3818 1.35347 13.4917 1.21827Z" fill="#ABABAB"/>
<path d="M13.4918 1.21795V13.4023C13.2805 13.6394 12.991 13.7385 12.7008 13.8312C12.1222 14.1243 11.5441 14.4178 10.9664 14.7118C10.6302 14.884 10.2956 15.0584 9.96263 15.2349C9.65338 15.3991 9.34836 15.3906 9.07504 15.1747C8.8144 14.9687 8.72849 14.6941 8.78766 14.3529C9.00533 13.0965 9.20257 11.8372 9.41742 10.5807C9.44419 10.4257 9.36529 10.3528 9.27653 10.2672C8.40069 9.40123 7.52436 8.53599 6.64758 7.67146C6.40526 7.43362 6.25877 7.1703 6.36021 6.82204C6.46587 6.46032 6.71943 6.28407 7.08644 6.22956C8.29806 6.05047 9.50759 5.85369 10.7206 5.68168C10.7973 5.67796 10.8711 5.65131 10.9326 5.60515C10.9941 5.55899 11.0405 5.49543 11.0658 5.42261C11.6188 4.18528 12.183 2.9529 12.7339 1.71486C12.886 1.37651 13.1262 1.21158 13.4918 1.21795Z" fill="#BEBEBE"/>
<path d="M7.95161 17.7996C8.06643 17.2658 8.32001 17.0584 8.86031 17.0556C9.01739 17.0556 9.17379 17.0492 9.33087 17.0457H12.7008C12.8275 16.9918 12.9638 16.9646 13.1013 16.9659C13.2389 16.9671 13.3747 16.9967 13.5004 17.0528C13.5948 17.1752 13.5757 17.3211 13.5764 17.4605C13.5764 18.2193 13.5764 18.9781 13.5764 19.7377C13.5764 20.0817 13.5941 20.0966 13.9287 20.1001C14.2365 20.1001 14.5436 20.093 14.8507 20.1051C14.9571 20.1093 15.0895 20.0845 15.1325 20.2374C15.0409 20.328 14.9212 20.3188 14.8106 20.3195C14.3879 20.3195 13.9653 20.3273 13.5475 20.3195C12.9988 20.3096 12.4486 20.3054 11.8999 20.3195C11.7501 20.3206 11.6045 20.3696 11.4843 20.4594C11.364 20.5493 11.2755 20.6754 11.2314 20.8193C11.1901 20.9545 11.1906 21.0991 11.2328 21.2339C11.2751 21.3688 11.3571 21.4876 11.4681 21.5746C11.5662 21.6484 11.6788 21.7002 11.7985 21.7268C12.2394 21.7869 12.6825 21.7381 13.1235 21.7551C13.2517 21.76 13.3862 21.731 13.5025 21.8145C13.5469 21.8694 13.5699 21.9386 13.5673 22.0092C13.5602 22.4686 13.6187 22.9294 13.5328 23.3874C13.5173 23.4178 13.4926 23.4426 13.4623 23.4582C13.3632 23.4944 13.2575 23.5089 13.1524 23.5007C11.5411 23.5007 9.93033 23.5007 8.32002 23.5007C8.19181 23.5007 8.05375 23.5205 7.9502 23.41L7.95161 17.7996Z" fill="#666D72"/>
<path d="M15.1269 20.2259C14.8803 20.1375 14.626 20.2005 14.3759 20.187C14.1749 20.1736 13.9732 20.1736 13.7722 20.187C13.5574 20.2047 13.4855 20.1368 13.4905 19.9117C13.5024 18.9617 13.4954 18.0118 13.4954 17.0618L13.5299 17.0271C13.7771 16.9478 14.0434 16.9522 14.2879 17.0399H17.6579C17.8057 17.0528 17.9542 17.0559 18.1024 17.0491C18.6215 16.9939 19.0667 17.3393 19.0371 17.9474C19.0371 19.7675 19.039 21.5874 19.0428 23.4071C18.9477 23.5118 18.8195 23.4984 18.699 23.4991C17.0798 23.5019 15.4596 23.5019 13.8385 23.4991C13.718 23.4991 13.5905 23.5118 13.4926 23.4127C13.4926 22.8861 13.4938 22.3594 13.4961 21.8328C13.5828 21.7301 13.7039 21.7542 13.8138 21.7528C14.1991 21.7485 14.5838 21.7528 14.9691 21.7528C15.4079 21.7485 15.6953 21.5404 15.7714 21.1794C15.8475 20.8184 15.6735 20.5112 15.2783 20.33C15.2205 20.301 15.1593 20.2861 15.1269 20.2259Z" fill="#484F53"/>
<path d="M13.4927 23.4138L19.0407 23.4081C19.3126 23.4081 19.5846 23.4017 19.8565 23.4081C19.9573 23.4099 20.0569 23.4318 20.1493 23.4723C20.2418 23.5128 20.3254 23.5713 20.3953 23.6444C20.4653 23.7174 20.5202 23.8036 20.5569 23.898C20.5937 23.9924 20.6116 24.0932 20.6095 24.1945C20.6095 24.6249 20.289 24.9944 19.8663 24.9951C17.7425 25.0001 15.6186 24.9951 13.4948 24.9888C13.4746 24.972 13.4579 24.9514 13.4458 24.928C13.4337 24.9047 13.4264 24.8791 13.4243 24.8528C13.3983 24.4186 13.3983 23.9832 13.4243 23.549C13.4316 23.4953 13.4564 23.4455 13.4948 23.4074L13.4927 23.4138Z" fill="#33393E"/>
<path d="M13.4924 23.4141V24.9927C11.3854 24.9927 9.27848 25.0012 7.17084 24.9969C7.06499 24.9978 6.96005 24.9773 6.86227 24.9365C6.76449 24.8958 6.67588 24.8357 6.60173 24.7598C6.52757 24.6839 6.46938 24.5937 6.43064 24.4947C6.3919 24.3957 6.37342 24.2899 6.37626 24.1836C6.38683 23.7482 6.72845 23.4219 7.18281 23.4127C7.43781 23.4071 7.69212 23.4127 7.94712 23.4092L13.4924 23.4141Z" fill="#484F53"/>
<path d="M13.4937 17.0627L12.7012 17.045V13.8313C12.9414 13.6451 13.233 13.5538 13.4922 13.4023L13.4965 13.408C13.5747 13.5241 13.5789 13.6558 13.5789 13.7888C13.5789 14.7501 13.5789 15.7109 13.5789 16.6712C13.5789 16.8008 13.5986 16.9395 13.4916 17.0457L13.4937 17.0627Z" fill="#ABABAB"/>
<path d="M13.4897 17.0459L13.4961 13.4082L14.2886 13.8329C14.2886 14.9032 14.2886 15.9735 14.2886 17.0438L13.4897 17.0459Z" fill="#888888"/>
<path d="M15.1266 20.2256C15.6197 20.3006 15.9015 20.634 15.8649 21.1069C15.8346 21.5316 15.488 21.8232 15.0161 21.826L13.4959 21.8338C13.0028 21.8338 12.5132 21.8289 12.0215 21.8239C11.9271 21.8239 11.8271 21.8473 11.7397 21.7807C11.8334 21.6739 11.9624 21.693 12.0821 21.6915C12.4343 21.6859 12.7823 21.6845 13.1317 21.6915C13.3332 21.6958 13.4135 21.613 13.4135 21.4084C13.4057 21.1253 13.4093 20.8464 13.4135 20.5647C13.4135 20.4514 13.4071 20.3339 13.4938 20.2412L15.1266 20.2256Z" fill="#ABABAB"/>
<path d="M13.4921 20.2431C13.4921 20.6678 13.4836 21.0861 13.4977 21.5073C13.5041 21.7097 13.4505 21.7841 13.2357 21.7784C12.7383 21.765 12.2403 21.7784 11.7423 21.7784C11.3436 21.6828 11.0921 21.348 11.1238 20.9566C11.138 20.7659 11.2215 20.5872 11.3585 20.4544C11.4954 20.3216 11.6761 20.2441 11.8663 20.2367C12.408 20.2275 12.9476 20.2402 13.4921 20.2431Z" fill="#BEBEBE"/>
</g>
<defs>
<clipPath id="clip0_4468_11152">
<rect width="27" height="25" fill="white"/>
</clipPath>
</defs>
</svg>
