<svg width="27" height="25" viewBox="0 0 27 25" fill="none" xmlns="http://www.w3.org/2000/svg">
<g clip-path="url(#clip0_4357_16215)">
<path d="M0 7.94853C0.102142 7.81474 0.0802978 7.65122 0.0986129 7.49903C0.154263 7.04671 0.459991 6.75296 0.915755 6.77844C1.68499 6.82162 2.35136 7.15148 2.97266 7.58398C3.07973 7.65901 3.184 7.74183 3.31573 7.84376C3.3594 7.59672 3.39673 7.37587 3.43759 7.15502C3.46647 6.99717 3.32275 6.99575 3.24456 6.94832C2.04703 6.21853 1.47363 5.14754 1.53774 3.74528C1.56637 3.15195 1.73933 2.57473 2.04143 2.06413C2.39975 1.45667 2.8121 0.883085 3.27345 0.350414C3.65032 -0.0891641 4.11877 -0.107571 4.53227 0.290243C5.4114 1.13188 5.80024 2.19579 5.89885 3.38286C5.9693 4.19831 5.79953 4.97341 5.49099 5.7294C3.91448 9.59358 5.15006 13.8074 8.58414 16.3125C8.86591 16.5199 9.14769 16.7295 9.33084 17.0459C9.24913 17.1563 9.12586 17.1358 9.01949 17.128C8.54329 17.0912 8.18049 17.232 8.02129 17.7254C8.00717 17.7568 7.98212 17.782 7.95084 17.7962C7.8487 17.7431 7.77334 17.6546 7.63034 17.7686C5.96085 19.1001 3.73274 18.5472 2.58241 16.9567C2.19313 16.4129 1.84667 15.8395 1.5462 15.2415C1.28838 14.7368 1.44055 14.3086 1.95055 14.0623C2.64371 13.7282 3.37913 13.6673 4.13428 13.7168C4.18641 13.7168 4.23851 13.7168 4.32445 13.7168C4.23147 13.4988 4.14977 13.2992 4.06102 13.1031C3.99973 12.9686 3.87575 13.0323 3.77924 13.0323C2.61764 13.1074 1.67229 12.6727 0.917853 11.8014C0.514933 11.3321 0.23459 10.7694 0.102121 10.1641C0.0774663 10.0572 0.0908711 9.93476 0 9.84841V9.53058C0.0429749 9.41071 0.0429749 9.27953 0 9.15967V8.73495C0.0429749 8.61508 0.0429749 8.4839 0 8.36404V7.94853Z" fill="#ABABAB"/>
<path d="M0 8.37256C0.0401149 8.42599 0.0618094 8.49109 0.0618094 8.55802C0.0618094 8.62495 0.0401149 8.69006 0 8.74348V8.37256Z" fill="#F4CC73"/>
<path d="M0 9.16675C0.0404466 9.22003 0.0623254 9.28519 0.0623254 9.35221C0.0623254 9.41922 0.0404466 9.48438 0 9.53766V9.16675Z" fill="#F3C661"/>
<path d="M17.6558 17.0408C17.8171 16.7336 18.0819 16.534 18.3602 16.3393C20.1663 15.0652 21.4075 13.384 21.9528 11.2208C22.4248 9.40332 22.2759 7.47923 21.5301 5.75687C20.8017 4.03537 20.975 2.40447 21.9823 0.849316C22.1389 0.613472 22.3287 0.401736 22.5459 0.220741C22.8748 -0.0624008 23.3208 -0.0864679 23.5969 0.220741C24.3197 1.02911 25.0142 1.86721 25.3228 2.93961C25.7968 4.58608 25.1818 6.10868 23.7138 6.96801C23.5835 7.04446 23.5434 7.12161 23.5779 7.26319C23.623 7.44227 23.6539 7.6249 23.6934 7.81885C23.8646 7.76222 23.9752 7.62066 24.1196 7.52368C24.6112 7.18095 25.165 6.93874 25.7496 6.81087C26.4393 6.66363 26.8168 6.92059 26.9014 7.61924C27.007 8.48848 27.0803 9.36339 26.8767 10.2256C26.5027 11.8048 25.1072 13.1865 23.2081 13.0336C23.0453 13.0202 22.9714 13.0747 22.9207 13.2212C22.8629 13.3854 22.7833 13.5419 22.7142 13.6983C22.7847 13.7832 22.8551 13.7337 22.9164 13.7294C23.6342 13.6863 24.3365 13.7436 25.005 14.0395C25.5622 14.2865 25.7278 14.7155 25.4671 15.2648C25.029 16.185 24.5021 17.0479 23.7019 17.7062C22.4001 18.7786 20.7538 18.8104 19.4049 17.7925C19.1935 17.6311 19.1393 17.6509 19.0386 17.9497C18.9681 17.8966 18.9681 17.8123 18.954 17.7373C18.8709 17.3558 18.6215 17.1562 18.2327 17.1321C18.0376 17.1172 17.8262 17.2036 17.6558 17.0408Z" fill="#888888"/>
<path d="M13.492 1.21827C13.8766 1.18641 14.1147 1.37895 14.2668 1.71376C14.8022 2.91075 15.3446 4.10419 15.8722 5.304C15.9744 5.53688 16.0962 5.64873 16.3653 5.68412C17.5361 5.83843 18.7019 6.02601 19.8691 6.2051C20.2213 6.25889 20.5031 6.41109 20.6201 6.77775C20.7356 7.13168 20.6088 7.40987 20.3587 7.65762C19.4824 8.52404 18.6117 9.39611 17.7347 10.2625C17.6227 10.3729 17.5643 10.4678 17.5938 10.6462C17.8052 11.875 17.9968 13.1081 18.2081 14.3376C18.2701 14.7001 18.1736 14.986 17.8883 15.1991C17.603 15.4122 17.3057 15.3938 16.9979 15.2324C16.0962 14.7602 15.1917 14.2945 14.288 13.8266C13.973 13.7593 13.683 13.6051 13.4504 13.3813C13.4372 13.352 13.4278 13.321 13.4222 13.2893C13.4085 13.1752 13.4035 13.0602 13.4074 12.9453C13.4074 9.188 13.4074 5.43047 13.4074 1.67271C13.4088 1.51981 13.3821 1.35347 13.492 1.21827Z" fill="#ABABAB"/>
<path d="M13.4918 1.2182V13.4025C13.2805 13.6396 12.991 13.7387 12.7008 13.8315C12.1222 14.1245 11.5441 14.418 10.9664 14.712C10.6302 14.8843 10.2956 15.0586 9.96263 15.2351C9.65338 15.3994 9.34836 15.3909 9.07504 15.175C8.8144 14.969 8.72849 14.6943 8.78766 14.3531C9.00533 13.0967 9.20257 11.8374 9.41742 10.581C9.44419 10.426 9.36529 10.3531 9.27653 10.2674C8.40069 9.40147 7.52436 8.53623 6.64758 7.67171C6.40526 7.43387 6.25877 7.17054 6.36021 6.82228C6.46587 6.46057 6.71943 6.28431 7.08644 6.22981C8.29806 6.05072 9.50759 5.85394 10.7206 5.68193C10.7973 5.6782 10.8711 5.65155 10.9326 5.60539C10.9941 5.55923 11.0405 5.49567 11.0658 5.42285C11.6188 4.18552 12.183 2.95314 12.7339 1.71511C12.886 1.37675 13.1262 1.21182 13.4918 1.2182Z" fill="#BEBEBE"/>
<path d="M7.95161 17.7998C8.06643 17.2661 8.32001 17.0587 8.86031 17.0558C9.01739 17.0558 9.17379 17.0495 9.33087 17.0459H12.7008C12.8275 16.9921 12.9638 16.9649 13.1013 16.9661C13.2389 16.9673 13.3747 16.9969 13.5004 17.053C13.5948 17.1755 13.5757 17.3213 13.5764 17.4607C13.5764 18.2196 13.5764 18.9784 13.5764 19.7379C13.5764 20.0819 13.5941 20.0968 13.9287 20.1003C14.2365 20.1003 14.5436 20.0933 14.8507 20.1053C14.9571 20.1096 15.0895 20.0848 15.1325 20.2377C15.0409 20.3283 14.9212 20.3191 14.8106 20.3198C14.3879 20.3198 13.9653 20.3276 13.5475 20.3198C12.9988 20.3099 12.4486 20.3056 11.8999 20.3198C11.7501 20.3208 11.6045 20.3698 11.4843 20.4597C11.364 20.5496 11.2755 20.6756 11.2314 20.8195C11.1901 20.9547 11.1906 21.0993 11.2328 21.2342C11.2751 21.369 11.3571 21.4878 11.4681 21.5748C11.5662 21.6486 11.6788 21.7005 11.7985 21.727C12.2394 21.7872 12.6825 21.7383 13.1235 21.7553C13.2517 21.7603 13.3862 21.7313 13.5025 21.8148C13.5469 21.8696 13.5699 21.9388 13.5673 22.0094C13.5602 22.4688 13.6187 22.9297 13.5328 23.3876C13.5173 23.4181 13.4926 23.4429 13.4623 23.4584C13.3632 23.4947 13.2575 23.5092 13.1524 23.5009C11.5411 23.5009 9.93033 23.5009 8.32002 23.5009C8.19181 23.5009 8.05375 23.5207 7.9502 23.4103L7.95161 17.7998Z" fill="#666D72"/>
<path d="M15.1269 20.2255C14.8803 20.137 14.626 20.2 14.3759 20.1865C14.1749 20.1731 13.9732 20.1731 13.7722 20.1865C13.5574 20.2042 13.4855 20.1363 13.4905 19.9112C13.5024 18.9612 13.4954 18.0113 13.4954 17.0613L13.5299 17.0266C13.7771 16.9473 14.0434 16.9517 14.2879 17.0394H17.6579C17.8057 17.0523 17.9542 17.0554 18.1024 17.0486C18.6215 16.9934 19.0667 17.3388 19.0371 17.9469C19.0371 19.767 19.039 21.5869 19.0428 23.4066C18.9477 23.5113 18.8195 23.4979 18.699 23.4986C17.0798 23.5014 15.4596 23.5014 13.8385 23.4986C13.718 23.4986 13.5905 23.5113 13.4926 23.4122C13.4926 22.8856 13.4938 22.3589 13.4961 21.8323C13.5828 21.7297 13.7039 21.7537 13.8138 21.7523C14.1991 21.7481 14.5838 21.7523 14.9691 21.7523C15.4079 21.7481 15.6953 21.5399 15.7714 21.1789C15.8475 20.8179 15.6735 20.5107 15.2783 20.3295C15.2205 20.3005 15.1593 20.2856 15.1269 20.2255Z" fill="#484F53"/>
<path d="M13.4927 23.4138L19.0407 23.4081C19.3126 23.4081 19.5846 23.4017 19.8565 23.4081C19.9573 23.4099 20.0569 23.4318 20.1493 23.4723C20.2418 23.5128 20.3254 23.5713 20.3953 23.6444C20.4653 23.7174 20.5202 23.8036 20.5569 23.898C20.5937 23.9924 20.6116 24.0932 20.6095 24.1945C20.6095 24.6249 20.289 24.9944 19.8663 24.9951C17.7425 25.0001 15.6186 24.9951 13.4948 24.9888C13.4746 24.972 13.4579 24.9514 13.4458 24.928C13.4337 24.9047 13.4264 24.8791 13.4243 24.8528C13.3983 24.4186 13.3983 23.9832 13.4243 23.549C13.4316 23.4953 13.4564 23.4455 13.4948 23.4074L13.4927 23.4138Z" fill="#33393E"/>
<path d="M13.4926 23.4137V24.9922C11.3857 24.9922 9.27873 25.0007 7.17108 24.9964C7.06523 24.9973 6.9603 24.9768 6.86252 24.936C6.76474 24.8953 6.67613 24.8352 6.60197 24.7593C6.52781 24.6834 6.46962 24.5932 6.43088 24.4942C6.39215 24.3952 6.37366 24.2894 6.37651 24.1831C6.38707 23.7478 6.7287 23.4214 7.18305 23.4122C7.43805 23.4066 7.69236 23.4122 7.94736 23.4087L13.4926 23.4137Z" fill="#484F53"/>
<path d="M13.4934 17.0629L12.7009 17.0452V13.8316C12.9411 13.6454 13.2328 13.5541 13.492 13.4026L13.4962 13.4083C13.5744 13.5243 13.5786 13.656 13.5786 13.7891C13.5786 14.7504 13.5786 15.7112 13.5786 16.6715C13.5786 16.801 13.5984 16.9398 13.4913 17.0459L13.4934 17.0629Z" fill="#ABABAB"/>
<path d="M13.4897 17.0459L13.4961 13.4082L14.2886 13.8329C14.2886 14.9032 14.2886 15.9735 14.2886 17.0438L13.4897 17.0459Z" fill="#888888"/>
<path d="M15.1269 20.2256C15.62 20.3006 15.9017 20.634 15.8651 21.1069C15.8348 21.5316 15.4883 21.8232 15.0163 21.826L13.4961 21.8338C13.003 21.8338 12.5135 21.8289 12.0218 21.8239C11.9274 21.8239 11.8273 21.8473 11.74 21.7807C11.8337 21.6739 11.9626 21.693 12.0824 21.6915C12.4346 21.6859 12.7826 21.6845 13.132 21.6915C13.3334 21.6958 13.4137 21.613 13.4137 21.4084C13.406 21.1253 13.4095 20.8464 13.4137 20.5647C13.4137 20.4514 13.4074 20.3339 13.494 20.2412L15.1269 20.2256Z" fill="#ABABAB"/>
<path d="M13.4918 20.2433C13.4918 20.668 13.4834 21.0864 13.4975 21.5075C13.5038 21.71 13.4503 21.7843 13.2354 21.7786C12.7381 21.7652 12.2401 21.7786 11.742 21.7786C11.3433 21.6831 11.0918 21.3483 11.1235 20.9568C11.1377 20.7662 11.2213 20.5874 11.3582 20.4546C11.4951 20.3219 11.6759 20.2444 11.866 20.2369C12.4077 20.2277 12.9473 20.2405 13.4918 20.2433Z" fill="#BEBEBE"/>
</g>
<defs>
<clipPath id="clip0_4357_16215">
<rect width="27" height="25" fill="white"/>
</clipPath>
</defs>
</svg>
