<svg width="20" height="28" viewBox="0 0 20 28" fill="none" xmlns="http://www.w3.org/2000/svg">
<g clip-path="url(#clip0_4354_16069)">
<path d="M10.9723 0.00353468C11.3142 0.134258 11.6812 0.138568 12.0346 0.208958C15.9908 0.994736 19.1835 4.29156 19.8435 8.2851C19.9631 8.97266 20.0136 9.67045 19.9944 10.3681C19.9908 10.465 20.008 10.5663 19.9534 10.6554C19.9175 10.623 19.8988 10.5835 19.9074 10.567C19.8722 11.1366 19.6956 11.7055 19.5067 12.2715C19.3081 12.8565 19.0526 13.4206 18.7439 13.9558C18.4443 14.485 18.0943 14.9841 17.6988 15.4462C17.3063 15.9117 16.8737 16.342 16.4059 16.7319C15.9341 17.1169 15.431 17.4619 14.9019 17.7633C14.3619 18.0647 13.7952 18.3154 13.209 18.5124C12.6327 18.7102 12.0385 18.8514 11.4348 18.934C10.8336 19.025 10.2253 19.0597 9.61764 19.0375C4.47129 18.8055 0.635774 14.8414 0.100669 10.506C0.0891765 10.5598 0.112152 10.618 0.0561281 10.6496C-0.0279086 10.2962 0.00227666 9.93782 0.0209515 9.583C0.120072 7.66524 0.673122 5.89185 1.78715 4.31813C3.47434 1.9335 5.76201 0.511346 8.66307 0.0911627C8.78804 0.0732062 8.93243 0.101937 9.03802 -0.00292969H9.25349C9.26023 0.0047131 9.26851 0.0108342 9.2778 0.0150269C9.28709 0.0192196 9.29717 0.0213879 9.30736 0.0213879C9.31755 0.0213879 9.32761 0.0192196 9.33689 0.0150269C9.34618 0.0108342 9.35449 0.0047131 9.36123 -0.00292969H9.57671C9.62771 0.0187423 9.68252 0.0299119 9.73794 0.0299119C9.79335 0.0299119 9.8482 0.0187423 9.89919 -0.00292969H10.1147C10.1657 0.0187423 10.2205 0.0299119 10.2759 0.0299119C10.3313 0.0299119 10.3862 0.0187423 10.4372 -0.00292969H10.7058C10.7125 0.0047131 10.7209 0.0108342 10.7301 0.0150269C10.7394 0.0192196 10.7495 0.0213879 10.7597 0.0213879C10.7699 0.0213879 10.7799 0.0192196 10.7892 0.0150269C10.7985 0.0108342 10.8068 0.0047131 10.8135 -0.00292969L10.9723 0.00353468Z" fill="#F19B4E"/>
<path d="M9.89768 0.00366211C9.85317 0.0429969 9.79582 0.0647076 9.73642 0.0647076C9.67702 0.0647076 9.6197 0.0429969 9.5752 0.00366211H9.89768Z" fill="#F3A55F"/>
<path d="M10.4348 0.00366211C10.3903 0.0429969 10.3329 0.0647076 10.2735 0.0647076C10.2141 0.0647076 10.1568 0.0429969 10.1123 0.00366211H10.4348Z" fill="#F3A55F"/>
<path d="M9.36042 0.00366211C9.32451 0.0604048 9.2886 0.0661509 9.25269 0.00366211H9.36042Z" fill="#F8CCA5"/>
<path d="M10.8113 0.00366211C10.7754 0.0683056 10.7395 0.0618413 10.7036 0.00366211H10.8113Z" fill="#F9D4B3"/>
<path d="M9.57163 21.1757C9.17946 22.3158 8.7873 23.4557 8.39513 24.5954C8.10064 25.4487 7.80447 26.3012 7.50663 27.1531C7.3522 27.5963 7.18703 27.6314 6.84585 27.2967C6.21881 26.6833 5.58816 26.0757 4.96543 25.4551C4.90247 25.3873 4.8233 25.3365 4.73536 25.3076C4.64742 25.2787 4.55358 25.2726 4.46265 25.2899C3.56554 25.3984 2.66699 25.4867 1.76773 25.5772C1.43589 25.6095 1.29582 25.4487 1.39709 25.1549C2.08806 23.1624 2.7812 21.1707 3.47647 19.1797C3.48413 19.1635 3.49377 19.1483 3.5052 19.1344C3.60791 19.1071 3.67328 19.179 3.74438 19.2278C5.28075 20.2851 6.99093 20.8669 8.8304 21.0953C9.07748 21.1254 9.33389 21.0637 9.57163 21.1757Z" fill="#A6D785"/>
<path d="M16.505 19.133C16.8948 20.2344 17.2845 21.3376 17.6743 22.4428C17.9822 23.3191 18.2877 24.1968 18.5908 25.0759C18.723 25.458 18.5951 25.6161 18.1879 25.573C17.2807 25.4774 16.3736 25.3826 15.4678 25.2785C15.2933 25.2584 15.1805 25.3273 15.0656 25.4394C14.4263 26.0667 13.7861 26.6923 13.1449 27.3162C12.8275 27.6258 12.6587 27.5884 12.515 27.1776C11.8447 25.2541 11.1743 23.3306 10.5039 21.407C10.478 21.3316 10.4622 21.2526 10.4421 21.1758C10.7474 21.0429 11.0771 21.1082 11.3946 21.0666C13.1238 20.8496 14.778 20.2299 16.2241 19.2573C16.3067 19.1998 16.3807 19.1093 16.505 19.133Z" fill="#A6D785"/>
<path d="M0.0559082 10.6524L0.0702875 10.386C0.224714 11.0611 0.379864 11.7349 0.614736 12.3863C0.852355 13.051 1.16311 13.6872 1.54129 14.2832C1.91781 14.8793 2.35728 15.4331 2.85211 15.9352C3.35056 16.4459 3.90084 16.9033 4.49405 17.2999C5.07922 17.6944 5.70687 18.0218 6.36514 18.2761C7.02132 18.5323 7.70261 18.7189 8.39781 18.8327C9.09453 18.939 9.79769 19.0137 10.5023 18.9634C12.8726 18.7939 14.9742 17.9672 16.7354 16.3468C18.4966 14.7264 19.5366 12.7282 19.9331 10.3723C19.9403 10.4643 19.9467 10.5562 19.9532 10.6474C19.8763 12.3109 19.3578 13.8358 18.4908 15.2443C17.8804 16.2377 17.0965 17.1135 16.1766 17.83C16.1434 17.8595 16.1118 17.8907 16.0818 17.9234C16.0638 18.0347 15.9705 18.0793 15.8914 18.1389C14.4298 19.1854 12.8072 19.8182 11.0173 19.9913C10.6675 20.025 10.3113 20.1047 9.95502 20.0178C9.64329 20.1126 9.33083 20.0178 9.02629 19.992C7.20478 19.8232 5.55709 19.1768 4.07028 18.108C4.00492 18.0606 3.93597 18.016 3.92663 17.9255C3.12002 17.2655 2.38453 16.5379 1.79555 15.6724C0.763412 14.1597 0.147127 12.4969 0.0559082 10.6524Z" fill="#EF8B36"/>
<path d="M9.95162 20C10.8961 19.9468 11.8363 19.8642 12.7528 19.5956C13.8683 19.2724 14.9198 18.7597 15.8615 18.0801C15.9333 18.0276 16.0095 17.981 16.0834 17.9314C16.2512 18.322 16.3925 18.7235 16.5065 19.133C15.3436 19.9949 14.0457 20.5609 12.6451 20.9086C11.9533 21.0683 11.2494 21.1695 10.5406 21.211C10.5083 21.211 10.4738 21.188 10.4408 21.1758C10.328 20.8662 10.221 20.5545 10.0989 20.2485C10.0723 20.1803 10.0989 20.0502 9.95523 20.0603C9.9489 20.0563 9.94391 20.0504 9.94096 20.0435C9.93801 20.0365 9.93724 20.0289 9.93872 20.0215C9.94303 20.0072 9.94731 20 9.95162 20Z" fill="#94CE6F"/>
<path d="M9.95156 20C9.95156 20.0201 9.95515 20.0402 9.95731 20.0603C9.85509 20.4407 9.72619 20.8135 9.57159 21.1758C9.18402 21.2031 8.79457 21.1816 8.41234 21.1118C7.10538 20.9208 5.84158 20.5039 4.67738 19.88C4.26574 19.6666 3.87414 19.4166 3.50732 19.133C3.62029 18.7232 3.7614 18.3218 3.92965 17.9314C4.69532 18.4751 5.49619 18.9542 6.37606 19.2961C7.4435 19.7064 8.57169 19.9365 9.71454 19.977C9.79283 19.9784 9.87183 19.9914 9.95156 20Z" fill="#94CE6F"/>
<path d="M2.15625 10.3221C2.0521 10.1282 2.09591 9.91631 2.11459 9.71879C2.21083 8.67731 2.40189 7.65953 2.8508 6.70209C3.1442 6.07867 3.51276 5.49348 3.94829 4.95959C4.63999 4.11424 5.50609 3.42823 6.48736 2.94845C7.48799 2.45045 8.58442 2.17457 9.70158 2.13969C11.0682 2.07419 12.4275 2.37393 13.6398 3.00807C15.0206 3.72276 16.1551 4.83548 16.8964 6.20218C17.454 7.21241 17.7819 8.33318 17.8567 9.48464C17.8768 9.76619 17.9602 10.0442 17.8567 10.3236C17.7741 10.2273 17.8567 10.1181 17.8244 10.0104C17.8244 10.5319 17.6851 11.016 17.5306 11.503C17.3626 11.9945 17.1498 12.4696 16.895 12.9222C16.6398 13.3746 16.3389 13.7996 15.9971 14.1907C15.655 14.5922 15.2696 14.9548 14.8479 15.2717C14.4385 15.5918 13.9971 15.8686 13.5306 16.0977C13.0658 16.3299 12.5788 16.5147 12.0769 16.6493C11.574 16.7776 11.0604 16.8603 10.5427 16.8964C5.83589 17.2225 2.42631 13.4624 2.18354 10.0499C2.17132 10.1153 2.21946 10.2223 2.15625 10.3221Z" fill="#C2773F"/>
<path d="M2.15625 10.3222V9.89771C2.44355 11.865 3.29182 13.5221 4.77934 14.8537C6.26686 16.1854 8.04096 16.8648 10.0291 16.8483C14.343 16.8059 17.3855 13.5845 17.8538 9.9013V10.3244C17.8066 11.9899 17.2087 13.5928 16.1537 14.8824C14.914 16.4238 13.3195 17.4035 11.3586 17.7332C8.95604 18.1369 6.78832 17.5572 4.92875 15.9986C3.37156 14.6921 2.45146 12.9992 2.19935 10.9614C2.17428 10.7492 2.15989 10.5359 2.15625 10.3222Z" fill="#B06A3B"/>
</g>
<defs>
<clipPath id="clip0_4354_16069">
<rect width="20" height="27.5209" fill="white"/>
</clipPath>
</defs>
</svg>
