<svg width="20" height="28" viewBox="0 0 20 28" fill="none" xmlns="http://www.w3.org/2000/svg">
<g clip-path="url(#clip0_4354_16097)">
<path d="M0 9.84333C0.0329644 8.53086 0.313103 7.23639 0.825769 6.02774C1.41295 4.64496 2.29695 3.47851 3.40878 2.48455C4.29003 1.69823 5.30868 1.08109 6.41367 0.664079C7.26981 0.331183 8.17007 0.12537 9.08581 0.0531832C9.16918 0.0028741 9.26115 0.0380915 9.34883 0.027311C9.49257 0.0136557 9.6428 0.0582148 9.78511 0H10.2163C10.3601 0.0582148 10.5038 0.0136557 10.6519 0.027311C10.7395 0.0380915 10.8315 0.0028741 10.9156 0.0531832C11.9398 0.119304 12.915 0.383786 13.8623 0.771884C15.286 1.35691 16.4884 2.25313 17.5054 3.39514C18.507 4.52009 19.2344 5.86175 19.6306 7.31494C19.8467 8.12326 19.9713 8.95329 20.0021 9.78942C19.9657 9.96382 19.9486 10.1417 19.9511 10.3198C19.8836 11.2225 19.6248 12.0785 19.2698 12.9028C18.2701 15.2257 16.6228 16.9441 14.3568 18.0617C13.2668 18.5944 12.0852 18.9145 10.8754 19.0046C8.32973 19.2123 6.01768 18.5734 3.9816 17.0447C1.99079 15.5484 0.701439 13.5698 0.166726 11.1212C0.109519 10.8607 0.0710828 10.5965 0.0517268 10.3306C0.0583918 10.1665 0.0409772 10.0023 0 9.84333Z" fill="#9D9D9D"/>
<path d="M9.78511 0C9.65287 0.107086 9.49763 0.0301847 9.35389 0.0531831C9.33664 0.0416839 9.33088 0.0294667 9.33663 0.0179675C9.34238 0.0064683 9.34814 0 9.35389 0H9.78511Z" fill="#E6E6E6"/>
<path d="M10.6453 0.0531831C10.5016 0.0301847 10.3478 0.107086 10.2141 0H10.6453C10.6633 0.0114992 10.669 0.0237171 10.6633 0.035935C10.6575 0.0481529 10.6518 0.0531831 10.6453 0.0531831Z" fill="#E6E6E6"/>
<path d="M9.35471 0V0.0531831H9.08594V0H9.35471Z" fill="#F3F3F3"/>
<path d="M10.6453 0.0531831V0H10.9141C10.9141 0.0179675 10.9141 0.0352156 10.9141 0.0531831H10.6453Z" fill="#F3F3F3"/>
<path d="M9.56867 21.188C9.11445 22.5076 8.66049 23.8266 8.20675 25.1452C7.96671 25.8387 7.72232 26.5301 7.47868 27.2222C7.35076 27.5866 7.16823 27.6319 6.89656 27.366C6.24973 26.7342 5.59859 26.1047 4.95607 25.4686C4.89303 25.4009 4.81366 25.3505 4.72558 25.3222C4.63751 25.2939 4.54367 25.2886 4.45298 25.3069C3.55748 25.4183 2.65621 25.5045 1.75999 25.5944C1.42436 25.6267 1.28637 25.4657 1.38843 25.1696C2.07359 23.1918 2.76139 21.2149 3.45182 19.2389C3.45685 19.2231 3.47338 19.2116 3.48488 19.198C3.6049 19.1261 3.69042 19.2109 3.77236 19.2698C5.28594 20.2954 6.96413 20.8725 8.7695 21.1032C9.03686 21.1341 9.31066 21.0889 9.56867 21.188Z" fill="#0283FD"/>
<path d="M16.5157 19.1965C16.8248 19.949 17.0648 20.7259 17.3343 21.4963C17.7555 22.6942 18.174 23.8934 18.5899 25.0941C18.7228 25.4772 18.5899 25.6382 18.186 25.5972C17.2711 25.4988 16.3562 25.4003 15.442 25.2954C15.2652 25.2753 15.1545 25.3673 15.0467 25.4779C14.3999 26.1104 13.753 26.7424 13.1062 27.3739C12.8417 27.6312 12.6506 27.5895 12.5313 27.2539C11.8351 25.2616 11.1403 23.2682 10.447 21.2735C10.4407 21.2476 10.4366 21.2211 10.4348 21.1945C10.879 21.0809 11.3389 21.101 11.7896 21.0256C13.3498 20.769 14.838 20.1851 16.1564 19.3122C16.2627 19.2432 16.359 19.116 16.5157 19.1965Z" fill="#0283FD"/>
<path d="M0.104917 10.3257C0.219746 11.2284 0.46171 12.1104 0.823617 12.9453C1.39858 14.3037 2.26099 15.4522 3.34623 16.4361C4.24805 17.2552 5.2966 17.8966 6.43664 18.3262C7.70605 18.8134 9.06196 19.0348 10.4204 18.9767C11.6163 18.9298 12.7937 18.6661 13.8953 18.1983C15.2573 17.6195 16.4739 16.7457 17.4572 15.6397C18.4807 14.5105 19.2244 13.1564 19.6284 11.6869C19.7601 11.2431 19.851 10.7882 19.9 10.3278C20.061 10.4119 19.9568 10.5434 19.9554 10.6534C19.9274 11.812 19.6334 12.9123 19.1763 13.9673C18.6263 15.2448 17.813 16.3919 16.7895 17.3337C16.619 17.4909 16.4431 17.6423 16.262 17.7879C16.1966 17.8404 16.1334 17.8842 16.1183 17.9719C15.1588 18.7431 14.075 19.2721 12.9057 19.6386C12.0483 19.9074 11.1628 20.0094 10.2716 20.077C10.1638 20.0849 10.056 20.0612 9.95181 20.0641C9.26443 20.0557 8.57945 19.9811 7.90639 19.8413C6.48049 19.5538 5.2012 18.9371 4.02109 18.0991C3.96974 18.0635 3.92377 18.0206 3.88455 17.9719C3.82849 17.7707 3.63445 17.6988 3.4979 17.5802C1.68462 15.9991 0.563443 14.0342 0.154503 11.6625C0.0970072 11.3276 0.0373411 10.9948 0.0502777 10.6563C0.0481216 10.5391 -0.0560717 10.4098 0.104917 10.3257Z" fill="#888888"/>
<path d="M9.94675 20.0165C11.0442 19.9547 12.1316 19.8361 13.1809 19.4724C14.1466 19.1432 15.0575 18.6711 15.8832 18.0717C15.9551 18.0192 16.014 17.9445 16.1175 17.9696L16.5164 19.1964C16.1649 19.3323 15.8818 19.5838 15.5562 19.7671C14.3906 20.4249 13.1182 20.8723 11.7974 21.0888C11.3935 21.1556 10.9846 21.1606 10.5828 21.2325C10.5368 21.2404 10.4822 21.2052 10.4319 21.1894C10.3233 20.8897 10.2162 20.5886 10.1034 20.291C10.0754 20.2192 10.0811 20.0998 9.94675 20.1157C9.9395 20.1096 9.93366 20.102 9.92966 20.0934C9.92565 20.0849 9.92358 20.0755 9.92358 20.0661C9.92358 20.0566 9.92565 20.0473 9.92966 20.0387C9.93366 20.0301 9.9395 20.0225 9.94675 20.0165Z" fill="#0073FC"/>
<path d="M9.94671 20.0166V20.1143L9.56865 21.1881C9.31423 21.2535 9.05478 21.2067 8.80826 21.1766C7.34715 20.9983 5.95216 20.5915 4.65419 19.8829C4.35737 19.7212 4.07922 19.5314 3.78599 19.3575C3.68825 19.2993 3.6092 19.2037 3.48486 19.1951C3.5747 18.7725 3.77235 18.3837 3.88303 17.9683C4.17985 18.0401 4.38611 18.2694 4.62903 18.4232C5.89682 19.2138 7.26165 19.7284 8.75008 19.8987C9.14824 19.9454 9.54783 19.9778 9.94671 20.0166Z" fill="#0073FC"/>
<path d="M2.14174 10.0641C2.11877 9.52309 2.16465 8.9814 2.27829 8.45201C2.56075 6.96508 3.27929 5.59584 4.34241 4.51856C5.51461 3.31618 6.92972 2.5407 8.60285 2.25322C10.276 1.96574 11.8607 2.15979 13.3801 2.8828C14.8348 3.56326 16.0408 4.68083 16.8298 6.07958C17.4747 7.17978 17.8284 8.4262 17.8576 9.70111C17.8576 9.82185 17.9517 9.94331 17.8576 10.0641C17.7713 10.6153 17.6678 11.1608 17.4666 11.6869C17.1197 12.6294 16.6025 13.5001 15.9408 14.2555C14.8146 15.519 13.434 16.357 11.786 16.7228C10.1172 17.0929 8.47995 16.9686 6.89306 16.2966C5.97322 15.9116 5.13641 15.3525 4.42863 14.6501C3.33414 13.5762 2.57597 12.207 2.24667 10.7094C2.19564 10.496 2.22583 10.271 2.14174 10.0641Z" fill="#DFDFDF"/>
<path d="M2.14174 10.064C2.14337 10.0552 2.14579 10.0466 2.14894 10.0382C2.15828 10.0145 2.19205 9.99146 2.19421 10.0195C2.21531 10.2134 2.25015 10.4055 2.29843 10.5944C2.57873 11.9844 3.21044 13.1904 4.15625 14.2462C5.31048 15.5355 6.73496 16.3642 8.4196 16.6955C10.0453 17.0153 11.643 16.8687 13.1788 16.1874C14.0492 15.8095 14.842 15.2733 15.5168 14.6062C16.7781 13.3456 17.5572 11.8256 17.7972 10.0446C17.8019 10.0304 17.8084 10.0169 17.8166 10.0044L17.8561 10.0626C17.8806 14.2785 14.341 17.8763 9.98491 17.8648C5.62887 17.8533 2.11587 14.2613 2.14174 10.064Z" fill="#CDCDCD"/>
</g>
<defs>
<clipPath id="clip0_4354_16097">
<rect width="20" height="27.5363" fill="white"/>
</clipPath>
</defs>
</svg>
